<?xml version="1.0" encoding="utf-8"?>
<!-- Generator: Adobe Illustrator 17.0.0, SVG Export Plug-In . SVG Version: 6.00 Build 0)  -->
<!DOCTYPE svg PUBLIC "-//W3C//DTD SVG 1.1//EN" "http://www.w3.org/Graphics/SVG/1.1/DTD/svg11.dtd">
<svg version="1.1" id="Layer_1" xmlns="http://www.w3.org/2000/svg" xmlns:xlink="http://www.w3.org/1999/xlink" x="0px" y="0px"
	 width="859px" height="449px" viewBox="0 0 859 449" enable-background="new 0 0 859 449" xml:space="preserve">
<path d="M212.946,191.189c-0.539,0.167-0.29-0.324-0.253-0.258c-1.836-3.304-7.672-4.682-12.314-6.436
	c-2.65-1.001-5.428-2.178-8.093-3.347c-3.97-1.741-8.337-3.891-12.14-5.149c-1.752-0.58-3.45-0.568-4.552-1.287
	c-1.188-0.775-1.727-2.578-2.276-3.604l-0.065-0.099c0.122,0.124-1.999-3.706-1.705-3.505c-0.189-0.13-0.467-0.239-0.783-0.335
	h-0.259c-0.161-1.992-0.143-5.124,0.386-5.375c2.064-0.976,3.635-7.713,3.837-9.945c0,0,2.071,2.937,3.077-0.209
	s0.649-5.865,1.638-8.957c1.001-3.128,2.292-7.265,0.149-6.416c-1.734,0.687-1.258,0-1.04-0.859
	c0.323-1.274,2.891-11.454-1.117-18.878c1.834,0.196,3.082,0.166,3.082,0.166c-0.782-0.075-1.624-0.259-2.493-0.515
	c3.582,0.456,6.358,0.058,6.358,0.058c-1.896-0.014-4.174-0.674-6.43-1.586c2.069,0.305,3.587,0.267,3.587,0.267
	c-2.498-0.241-5.722-1.775-8.181-3.149c-7.337-6.115-16.48-7.668-21.567-6.908c0,0,5.03-1.27,11.569-0.178
	c0,0-12.877-2.359-18.41,0.381c0,0,3.219-2.841,10.765-3.044c0,0-13.481-1.522-15.493,7.002c0,0-4.326,0.129-6.64,3.782
	c0,0,2.616-2.158,3.622-1.347c0,0-5.003,2.74-4.802,10.757s1.079,14.207,1.884,15.019c0,0-4.159-1.255-2.52,3.146
	c1.746,4.691,1.961,5.176,2.101,7.528c0.158,2.659,1.728,6.679,3.337,5.157c0,0,1.911,7.611,3.924,8.626
	c1.241,0.626,1.229,3.276,0.92,5.476h-0.724c-0.068,0.084-0.114,0.191-0.123,0.335c-0.527,1.098-0.914,2.882-2.023,3.604
	c-0.673,0.438-1.144,1.59-1.517,2.06c-1.976,2.484-3.117,2.332-6.323,3.347c-6.538,2.071-12.239,5.387-17.956,7.723
	c-2.642,1.079-5.5,1.632-7.587,2.832c-1.479,0.85-5.41,3.247-5.695,4.377c-0.596,2.36-0.253,3.124-0.253,5.951
	c0,2.842,0,3.898,0,7.102c36.587,0,77.021,0,113.609,0c0-1.974,0-2.039,0-4.012C212.837,197.152,213.5,193.731,212.946,191.189z"/>
<path d="M238.508,190.413V201.5h116v-11.706c0,0-30.702-13.441-32.076-13.813c-1.374-0.372-2.367,0.02-5.247-3.221
	s-3.373-6.369-4.872-6.369c0,0,1.749-6.269,1.749-7.136s1.874,1.487,4.623-4.832s4.248-12.266,1.624-11.647
	s-2.873,0.124-2.499-0.991s1.749-8.549,1.374-11.275s-1.499-7.682-1.749-8.549s-0.5-1.858,0.625-1.858
	c1.124,0-1.499-2.106-2.374-1.982s0-1.487,1-1.487c0.999,0-0.375-1.487-1.624-1.487s-0.25-2.354-0.25-2.354l-2.124,0.991
	c0,0-1.624-3.468-1.124-3.963c0.5-0.496-1.749,1.238-2.624,1.114s-1.624-3.345-3.873-3.593s-1.999-2.749-1.874-3.232
	s-1.374,2.861-2.499,2.861c-1.124,0-3.132-0.496-5.131-0.124c0,0-0.241-2.267,0.196-2.805c0.437-0.539-2.186,2.557-3.561,2.929
	c-1.374,0.372-2.374,1.611-3.248,1.735s-2.624,1.859-3.623,1.982c-1,0.124,1.499-3.345,1.499-3.345s-2.998,3.965-4.373,4.832
	s-3.248,3.221-4.123,4.089c-0.874,0.867-4.623,4.708-4.498,6.938s-0.125,8.797,0,11.027s1.624,5.328,1.374,5.947
	c-0.25,0.62-3.748-1.982-3.248,2.354c0.5,4.337,2.374,9.664,2.374,11.275s2.874,3.841,3.873,2.85c0,0,1.249,5.08,1.999,7.682
	s-0.25,2.354-0.875,3.469s0.357,5.033-3.248,7.558C272.477,177.886,240.632,189.421,238.508,190.413z"/>
<path d="M488.517,199.499v-8.222c0,0-6.425-4.444-10.224-5c-3.799-0.555-17.66-9.889-18.666-10.333
	c-1.006-0.445-3.881-7.222-5.11-7.444c0,0-0.482-2.278,0.97-3.945c1.453-1.667,3.81-5.722,4.034-11.389c0,0,1.027,1.015,1.996-0.667
	c1.555-2.7,0.81-4.2,1-9c1.018-3.719,3.405-8.73,0.289-8.087c-0.961,0.198-0.826-0.042-0.379-1.949
	c0.447-1.908-0.447-3.074,0.335-3.852c0.782-0.778-1.006-9.778-1.676-12.222c-0.67-2.444-1.117-6.778-6.928-8.111
	c-2.458-0.778-10.112-4.778-16.844-4.333c-6.732,0.444-22.375,4.556-22.822,24.444c-0.447,7,0.376,7.429,0.071,7.609
	c0,0-0.584-1.731-2.457-0.051c-2.099,1.883,0.301,6.077,1.53,10.522c0.587,2.122,0.813,4.689,0.856,6.267
	c0.052,1.914,1.62,3.369,2.256,2.47c0.493-0.696,0.984-1.483,0.984-1.483s0.894,7.611,2.123,11.278
	c1.229,3.667-0.112,3.667-0.112,3.667s-2.011,1.556-3.129,3.556c-1.117,2-3.741,5.222-5.223,6.111
	c-1.482,0.889-16.119,8.722-20.142,9.611c-4.022,0.889-6.733,5-6.733,5v5.556h104.001V199.499z"/>
<path d="M617.25,201.499l0.275-12.205c-2.197-2.089-7.891-2.931-13.319-6.52s-16.401-9.329-17.11-9.549s-1.293,0.007-1.293,0.007
	c-1.421-0.338-3.395-3.238-3.836-4.063c-0.44-0.826,0.003-4.639,0.448-6.312c0.446-1.672,3.13-4.212,3.674-6.851
	c0.137-0.666,0.102-4.535,0.102-4.535c0.38,1.232,1.546-0.035,1.645-0.575c0.289-1.563,0.513-2.385,1.58-4.451
	c1.067-2.066,1.557-7.944,1.129-9.33s-3-0.399-3-0.399c-0.279-1.179,0.259-4.685-0.01-10.86s-3.536-10.582-4.682-11.781
	s-7.559-4.096-9.731-5.012c-2.173-0.916-2.277-3.059-4.777-3.065c-2.499-0.005-5.584-3.44-5.584-3.44
	c-0.133,1.374,2.219,3.364,2.219,3.364c-1.943,0.211-4.87-3.424-4.87-3.424c-0.916,2.172,2.55,4.544,2.55,4.544
	c-2.562,0.503-8.001-2.577-8.001-2.577c0.57,1.848,3.493,3.444,3.493,3.444c-1.129,0.281-4.342-1.984-4.342-1.984
	c1.282,1.966,2.94,3.074,2.94,3.074c-1.431,0.121-2.358,0.508-5.472,2.885s-5.475,5.281-6.987,8.969
	c-1.511,3.688-1.997,7.144-1.452,10.113c0.545,2.969,1.932,9.323,1.932,9.323c-0.398-0.468-0.694-0.882-2.026-0.658
	c-3.176,0.591,1.086,10.629,1.63,11.406c0.544,0.777,0.551,2.715,1.142,3.646s1.076-0.231,1.484-0.221
	c0.408,0.009,0.473,1.642,0.633,3.583s2.942,5.267,3.224,6.293c0.283,1.026-0.087,3.873-1.049,5.788
	c-0.961,1.916-5.269,2.94-5.269,2.94c-1.207-0.487-3.096,1.562-6.407,3.628c-3.311,2.067-12.775,5.524-15.884,7.697
	c-3.109,2.173-7.433,4.115-7.433,4.115l-0.293,12.992H617.25V201.499z"/>
<path d="M732.848,189.747c-3.597-2.719-13.986-1.072-17.283-2.472c-3.297-1.401-3.097-1.401-3.297-4.367
	c-0.078-1.153-0.019-3.139,0.081-5.137c0.275,0.071,0.562,0.112,0.86,0.112c1.066,0,2.015-0.485,2.635-1.241
	c0.002-0.001,0.005-0.002,0.007-0.004c0.225-0.138,0.498-0.327,0.801-0.554c0.153,0.021,0.309,0.035,0.468,0.035
	c1.868,0,3.382-1.486,3.382-3.318c0-0.126-0.009-0.25-0.023-0.373c0.126-0.156,0.247-0.312,0.362-0.467
	c1.447-0.376,2.514-1.666,2.514-3.204c0-0.272-0.037-0.534-0.1-0.787c1.421-0.267,2.524-1.407,2.711-2.829
	c0.398-0.393,0.715-0.805,0.877-1.258c0.013-0.038,0.029-0.08,0.044-0.12c1.436-0.384,2.492-1.668,2.492-3.198
	c0-0.565-0.145-1.096-0.398-1.562c0.017-0.037,0.035-0.074,0.052-0.11c1.141-0.533,1.932-1.672,1.932-2.994
	c0-0.262-0.034-0.515-0.092-0.759c1.111-0.538,1.879-1.654,1.888-2.95c0.589-0.597,0.952-1.409,0.952-2.305
	c0-0.475-0.104-0.926-0.287-1.335c1.052-0.562,1.767-1.657,1.767-2.916c0-0.605-0.168-1.171-0.456-1.659
	c0.288-0.488,0.456-1.054,0.456-1.659c0-0.34-0.053-0.668-0.15-0.977c0.675-0.607,1.101-1.476,1.101-2.444
	c0-0.958-0.417-1.819-1.079-2.425c0.081-0.285,0.128-0.583,0.128-0.893c0-0.917-0.38-1.748-0.993-2.348
	c0.095-0.307,0.148-0.632,0.148-0.97c0-0.695-0.219-1.34-0.591-1.873c0.104-1.376-0.073-2.566-1.1-3.312
	c-0.584-0.424-1.15-0.963-1.697-1.563c-0.027-0.794-0.337-1.515-0.835-2.073c0.131-0.354,0.207-0.735,0.207-1.133
	c0-1.317-0.784-2.451-1.917-2.987c-0.067-0.759-0.396-1.442-0.895-1.968c0.042-0.208,0.065-0.423,0.065-0.644
	c0-1.728-1.346-3.146-3.066-3.303c-0.343-1.333-1.505-2.346-2.932-2.487c-0.331-1.492-1.683-2.609-3.303-2.609
	c-0.302,0-0.593,0.043-0.872,0.115c-0.583-0.997-1.677-1.671-2.933-1.671c-0.285,0-0.56,0.038-0.824,0.103
	c-0.338-1.483-1.685-2.592-3.298-2.592c-0.492,0-0.959,0.106-1.381,0.291c-0.62-0.686-1.522-1.121-2.529-1.121
	c-0.436,0-0.852,0.084-1.235,0.231c-0.62-0.712-1.541-1.165-2.57-1.165c-0.825,0-1.58,0.29-2.167,0.771
	c-0.587-0.481-1.342-0.771-2.167-0.771c-1.304,0-2.433,0.725-2.998,1.785c-0.402,0.062-0.743,0.154-1.018,0.289
	c0,0-1.057-0.933-2.22-0.933c-0.087,0-0.242,0.024-0.445,0.064c-0.411-0.174-0.863-0.271-1.339-0.271
	c-0.706,0-1.36,0.212-1.902,0.575c-0.542-0.363-1.197-0.575-1.902-0.575c-0.935,0-1.781,0.372-2.394,0.974
	c-0.313-0.094-0.644-0.145-0.988-0.145c-1.424,0-2.64,0.864-3.139,2.086c-0.081-0.006-0.161-0.012-0.244-0.012
	c-1.571,0-2.888,1.052-3.268,2.477c-0.006,0.004-0.015,0.008-0.021,0.012c-0.266,0.162-0.587,0.452-0.947,0.834
	c-1.337,0.039-2.478,0.837-2.99,1.972c-1.78,0.068-3.205,1.482-3.246,3.236c-0.834,0.604-1.378,1.573-1.378,2.668
	c0,0.141,0.012,0.28,0.029,0.416c-0.01,0-0.019-0.001-0.029-0.001c-1.823,0-3.305,1.416-3.375,3.188
	c-1.186,0.515-2.015,1.679-2.015,3.033c0,0.43,0.086,0.839,0.237,1.216c-0.478,0.572-0.766,1.304-0.766,2.102
	c0,0.128,0.009,0.253,0.023,0.377c-1.081,0.554-1.82,1.662-1.82,2.941c0,0.11,0.006,0.219,0.017,0.327
	c-0.283,0.485-0.447,1.045-0.447,1.644c0,0.401,0.076,0.783,0.209,1.139c-0.519,0.583-0.836,1.344-0.836,2.179
	c0,0.367,0.063,0.72,0.176,1.05c-0.932,0.591-1.55,1.617-1.55,2.786c0,1.1,0.548,2.073,1.389,2.676
	c0.012,0.139,0.033,0.275,0.062,0.409c-0.381,0.537-0.606,1.188-0.606,1.892c0,1.432,0.927,2.649,2.223,3.114
	c0.01,0.049,0.019,0.099,0.029,0.149c-0.672,0.607-1.096,1.474-1.096,2.441c0,1.172,0.621,2.199,1.555,2.79
	c-0.112,0.329-0.174,0.681-0.174,1.047c0,1.161,0.609,2.182,1.53,2.775c-0.428,0.556-0.684,1.245-0.684,1.995
	c0,1.108,0.556,2.086,1.406,2.689c-0.161,0.386-0.251,0.808-0.251,1.251c0,1.123,0.57,2.113,1.44,2.714
	c-0.037,0.196-0.059,0.398-0.059,0.604c0,1.35,0.823,2.509,2.002,3.027c0.009,1.484,1.01,2.736,2.386,3.151
	c0.245,1.362,1.334,2.435,2.719,2.682c1.304,2.037,2.928,3.609,5.413,3.271c1.331-0.181,2.186-0.433,2.719-0.709
	c0.096,1.954,0.15,3.88,0.074,5.008c-0.2,2.966,0,2.966-3.297,4.367s-13.687-0.247-17.283,2.472
	c-3.597,2.719-14.686,6.232-14.686,7.797s0,3.955,0,3.955h103c0,0,0-2.39,0-3.955S736.444,192.466,732.848,189.747z"/>
<path d="M162.973,248.476c0,0-0.962-2.95-5.17-3.154c-4.208-0.203-11.782-0.814-17.313,4.069s-9.979,12.716-12.624,25.635
	s-9.859,26.042-9.137,33.163c0,0,4.408-15.87,7.695-18.65c0,0-6.332,15.462-5.05,19.057c0,0,0.802-4.272,2.084-5.629
	c0,0-1.603,5.425-0.16,6.714c1.443,1.289,5.13,2.713,6.653,2.509s6.99-0.298,6.973,1.444c-0.04,4.219-4.89,12.658-13.546,11.912
	c-8.657-0.746-19.878,4.574-19.878,11.865v3.097h105v-4.129v-0.855c0,0-3.126-9.638-19.2-9.638c-9.057,0-15.827-5.591-15.827-11.253
	c0-4.544,7.294-1.356,9.618-4.476c2.324-3.12,4.168-6.104,2.886-9.155c0,0,1.603,3.187,3.206,3.391c0,0-4.248-7.053-4.328-11.461
	s-2.805-31.875-7.374-37.503C172.912,249.798,168.984,246.882,162.973,248.476z"/>
<path d="M243.508,325.257c0,0,18-8.055,20.124-11.028c1.433-2.006,4.602-6.971,5.074-7.655c0.472-0.683-0.708-13.259,1.416-18.18
	c0,0,0.472-8.612,1.77-12.439c0.236-1.914,3.658-18.317,8.968-25.015c5.31-6.698,7.434-8.612,10.384-7.518s2.596-1.64,3.422-1.777
	s8.142,0.273,12.273,2.597c4.13,2.324,10.384,10.799,12.863,19.137c2.478,8.338,4.838,20.777,3.776,28.569
	s-3.186,11.209-3.186,12.166s0.404,6.835,3.447,7.792s10.713,4.101,11.421,5.741c0,0-1.575-0.868-3.562-1.846
	c-0.59-0.29-1.215-0.59-1.847-0.879c-1.867-0.855-3.786-1.62-4.975-1.786c0,0,8.266,4.475,12.223,6.894
	c4.919,3.007,12.408,9.549,12.408,9.549v12.929l-106-0.001v-17.25H243.508z"/>
<path d="M477.729,323.584c-4.771-3.195-11.236-3.571-15.442-3.822c-0.981-0.059-1.969-0.251-2.936-0.522
	c-2.074-1.373-3.922-2.999-4.346-4.616c-1.067-4.072-3.39-9.585-0.628-12.342s6.403-6.578,7.721-8.395c0,0,1.004-1.378,1.193-0.752
	c0.17,0.565-0.171,7.699-0.792,9.924c0.564-1.469,2.059-5.647,2.11-8.796c0,0,0.436,0.87,0.444,1.445
	c0.034-0.855,0.231-6.121,0.058-7.96c-0.188-2.005,2.323-4.511,0.753-9.648c-1.569-5.137-5.649-17.604-6.152-20.924
	c-0.502-3.32-2.699-11.214-7.846-12.404c-1.215-0.281-2.257-0.471-3.145-0.599c1.413-0.138,2.769-0.216,2.769-0.216
	c-4.206-0.867-5.794-0.522-6.374-0.042c-0.243,0.003-0.415,0.008-0.524,0.003c-0.409-0.801-1.137-1.84-1.137-1.84
	s0.244,0.916,0.416,1.681c-0.183-0.03-0.381-0.063-0.561-0.109c-0.941-1.05-2.796-1.955-3.76-2.379
	c0.555,0.321,1.157,0.872,1.682,1.42c-2.291-0.945-6.589-2.183-11.148-0.737c-6.717,2.13-14.877,6.515-17.827,12.028
	c-2.95,5.513-7.909,22.115-8.6,30.698c-0.69,8.583-1.695,11.927-1.381,14.484c0,0,1.004-1.766,1.004-0.701s-0.063,5.325,2.448,7.831
	c0,0-0.439-1.19-0.439-1.817s0.377,1.065,1.82,2.569c1.444,1.504,4.771,2.757,4.771,3.884c0,0.831-1.433,3.808-2.84,7.273
	c-6.214,1.19-16.431,3.628-20.188,9.804c-2.849,4.684-3.337,16.502-3.337,16.502l100.121-0.062
	C486.517,329.661,482.5,326.779,477.729,323.584z M448.54,306.419c0-0.439,0.126-1.253,0.879-1.942
	c0.158-0.145,0.419-0.6,0.734-1.237c0.147,0.783,0.27,1.667,0.27,2.427c0,0.846-0.585,3.028-1.155,5.558
	C448.757,308.937,448.54,306.645,448.54,306.419z M422.615,314.876c-0.411,0.635-1.233,1.08-2.346,1.425
	c-0.456-0.828-0.853-1.523-1.107-1.926c-1.067-1.691-2.071-6.954-1.695-8.458c0.325-1.298,0.792-2.874,2.527-3.483
	c0.663,1.04,3.942,5.054,4.441,5.676C424.938,308.737,423.996,312.746,422.615,314.876z"/>
<path d="M608.026,325.06c-5.312-0.566-17.301-2.811-24.189-5.452c-0.129-4.99-0.071-10.805,0.795-12.454
	c0,0,0.331,3.049,1.435,3.856c0,0-0.718-3.811,0.331-5.784c0.201-0.378,0.422-0.806,0.652-1.26
	c3.144,8.653,7.563,11.135,7.563,11.135c-4.675-3.558-4.568-14.693-4.568-14.693c0.106,1.377,1.487,3.444,1.487,3.444
	c-0.637-1.033-0.106-2.525,0.425-5.022c0.281-1.323,0.443-4.538,0.518-6.706c0.019,0.079,0.039,0.157,0.059,0.234
	c0.292,3.617,1.76,7.936,1.76,7.936c-0.734-5.04-0.425-12.741-0.425-12.741c0,5.395,2.231,7.998,2.231,7.998
	c-0.319-2.792,0.319-4.44,0.106-7.884c-0.107-1.734,0.244-3.527,0.619-4.879c0.299,0.721,0.683,1.407,1.166,1.857
	c0,0-0.316-1.948-0.484-3.899c0.05-0.126,0.08-0.196,0.08-0.196c1.062,0.459,1.381,4.706,1.381,4.706
	c0.576-1.245,0.046-4.36-1.258-8.703c0.437-2.325,0.781-7.922-0.106-10.562c-0.775-2.308-1.315-4.507-1.96-5.788
	c0.97,1.455,2.85,4.442,3.175,6.192c0,0,0.055-3.453-1.38-6.681s-5.41-7.698-7.232-8.826s-3.588-3.236-5.962-4.67
	c-2.374-1.435-9.44-4.708-14.519-4.708s-16.948,0.404-20.316,2.825s-5.19,3.892-5.604,4.704c0,0-2.234,0.605-3.416,1.441
	l0.307,0.409c-0.372,0.196-5.563,3.86-6.833,7.453s-2.562,8.698-1.643,9.766c0,0,0.438-3.736,1.993-4.821
	c1.555-1.085-0.868,2.537-0.786,3.042c0.083,0.504-2.65,8.945,3.478,20.918c0,0-3.671-9.506-1.628-12.241c0,0,1.435,5.47,1.27,6.367
	c-0.166,0.897,5.079,10.268,6.79,12.465c1.444,1.854,3.084,6.07,3.197,8.015c0.162-1.366,0.413-4.041,0.006-4.832
	c-0.542-1.053,6.638,8.698,4.046,22.609c-6.938,2.566-21.17,3.792-23.332,4.198c-5.668,1.065-10.412,5.533-10.412,11.163
	l-0.319,7.519h100v-7.519C616.525,334.989,615.569,325.864,608.026,325.06z M553.816,317.829c-0.372,0.388-0.918,0.754-1.599,1.1
	c0.003-0.044,0.516-7.969,0.771-13.763c0.564,0.648,1.158,1.257,1.784,1.816C554.772,306.981,556.231,315.305,553.816,317.829z
	 M578.73,316.164c-0.433-2.272-0.307-4.932,0.062-6.918c0.76,2.036,1.7,4.812,1.7,4.812l1.287,4.672
	C580.028,317.887,578.893,317.019,578.73,316.164z"/>
<path d="M733.801,328.727c-7.75-0.763-23.414-4.739-24.178-8.443c-0.764-3.704,0.164-8.498,1.146-9.26c0,0,3.542-2.876,6.084-6.318
	c3.119,11.472,9.088,14.568,9.088,14.568c-4.803-3.377-4.694-13.945-4.694-13.945c0.109,1.307,1.528,3.268,1.528,3.268
	c-0.655-0.98-0.109-2.397,0.437-4.766c0.313-1.357,0.482-4.813,0.549-6.844c0.128,3.548,1.852,8.233,1.852,8.233
	c-0.754-4.783-0.437-12.093-0.437-12.093c0,5.12,2.292,7.591,2.292,7.591c-0.328-2.65,0.328-4.214,0.109-7.482
	s1.419-6.755,1.419-6.755c1.091,0.436,1.419,4.467,1.419,4.467c1.31-2.615,0.218-17.976-5.894-31.376
	c-6.113-13.4-20.958-14.49-25.433-12.747c-0.748,0.292-1.245,0.797-1.556,1.436c-12.044-6.751-17.823,2.466-24.641,10.479
	c-6.986,8.21-4.257,23.276-3.493,26.762c0.764,3.486,0.546,8.389-1.157,12.965s0.284,11.112,0.284,11.112
	c-0.873-3.922,0.546-9.914,0.546-9.914c-0.546,4.249,0.764,8.389,1.419,13.4c0.655,5.012-1.965,12.42-1.965,12.42
	c0.739-0.492,1.346-1.207,1.847-2.078c8.642-3.922,6.321-19.94,5.903-22.687c-0.307-2.016-0.182-7.266,0.526-12.364
	c0.013,0.263,0.02,0.52,0.02,0.771c-1.528,7.572,1.856,17.214,8.187,22.443c0,0,1.499,7.9-0.983,10.296
	c-3.75,3.62-20.78,5.226-23.468,5.692c-5.823,1.011-10.697,5.252-10.697,10.595l-0.327,4.358h93v-4.358
	C742.534,338.15,741.551,329.489,733.801,328.727z M671.102,321.853c1.825-4.764,1.599-12.135,1.681-15.326
	c0.087-3.398,0.873-9.861,1.184-12.314c-0.068,2.576,0.966,8.567,1.436,15.691C675.756,315.252,673.058,319.508,671.102,321.853z"/>
</svg>
